# Blender v2.77 (sub 0) OBJ File: ''
# www.blender.org
mtllib boxout.mtl
o boxout
v -1.000000 -0.000000 1.000000
v -1.000000 1.000000 0.000000
v -1.000000 0.000000 0.000000
v -1.000000 0.000000 -1.000000
v -1.000000 -1.000000 -0.000000
v 0.000000 1.000000 -1.000000
v 0.000000 0.000000 -1.000000
v 1.000000 0.000000 -1.000000
v 0.000000 -1.000000 -1.000000
v 1.000000 1.000000 0.000000
v 1.000000 0.000000 0.000000
v 1.000000 -0.000000 1.000000
v 1.000000 -1.000000 -0.000000
v 0.000000 1.000000 1.000000
v 0.000000 -0.000000 1.000000
v 0.000000 -1.000000 1.000000
v 0.000000 -1.000000 -0.000000
v 0.000000 1.000000 0.000000
v -1.000000 1.000000 1.000000
v -1.000000 1.000000 -1.000000
v -1.000000 -1.000000 -1.000000
v -1.000000 -1.000000 1.000000
v 1.000000 1.000000 -1.000000
v 1.000000 -1.000000 -1.000000
v 1.000000 1.000000 1.000000
v 1.000000 -1.000000 1.000000
vn 0.7071 0.0000 -0.7071
vn 1.0000 0.0000 0.0000
vn 0.7071 -0.7071 -0.0000
vn 0.7071 -0.0000 0.7071
vn 0.7071 0.7071 0.0000
vn 0.0000 -0.0000 1.0000
vn 0.0000 -0.7071 0.7071
vn -0.7071 -0.0000 0.7071
vn 0.0000 0.7071 0.7071
vn -1.0000 0.0000 0.0000
vn -0.7071 -0.7071 -0.0000
vn -0.7071 0.0000 -0.7071
vn -0.7071 0.7071 0.0000
vn 0.0000 0.0000 -1.0000
vn 0.0000 -0.7071 -0.7071
vn 0.0000 0.7071 -0.7071
vn 0.0000 1.0000 0.0000
vn 0.0000 -1.0000 0.0000
vn 0.5774 -0.5774 -0.5774
vn 0.5774 -0.5774 0.5774
vn 0.5774 0.5774 0.5774
vn 0.5774 0.5774 -0.5774
vn -0.5774 -0.5774 0.5774
vn -0.5774 0.5774 0.5774
vn -0.5774 -0.5774 -0.5774
vn -0.5774 0.5774 -0.5774
usemtl None
s 1
f 1//1 3//2 2//3
f 2//3 3//2 4//4
f 4//4 3//2 5//5
f 5//5 3//2 1//1
f 4//4 7//6 6//7
f 6//7 7//6 8//8
f 8//8 7//6 9//9
f 9//9 7//6 4//4
f 8//8 11//10 10//11
f 10//11 11//10 12//12
f 12//12 11//10 13//13
f 13//13 11//10 8//8
f 12//12 15//14 14//15
f 14//15 15//14 1//1
f 1//1 15//14 16//16
f 16//16 15//14 12//12
f 16//16 17//17 5//5
f 5//5 17//17 9//9
f 9//9 17//17 13//13
f 13//13 17//17 16//16
f 14//15 18//18 10//11
f 10//11 18//18 6//7
f 6//7 18//18 2//3
f 2//3 18//18 14//15
f 1//1 2//3 19//19
f 2//3 4//4 20//20
f 4//4 5//5 21//21
f 5//5 1//1 22//22
f 4//4 6//7 20//20
f 6//7 8//8 23//23
f 8//8 9//9 24//24
f 9//9 4//4 21//21
f 8//8 10//11 23//23
f 10//11 12//12 25//25
f 12//12 13//13 26//26
f 13//13 8//8 24//24
f 12//12 14//15 25//25
f 14//15 1//1 19//19
f 1//1 16//16 22//22
f 16//16 12//12 26//26
f 16//16 5//5 22//22
f 5//5 9//9 21//21
f 9//9 13//13 24//24
f 13//13 16//16 26//26
f 14//15 10//11 25//25
f 10//11 6//7 23//23
f 6//7 2//3 20//20
f 2//3 14//15 19//19
