# Blender v2.77 (sub 0) OBJ File: ''
# www.blender.org
mtllib box.mtl
o Cube_Cube.005
v -0.982540 0.342666 0.325579
v -0.315873 0.342666 -1.007754
v 1.017460 0.342666 -0.341087
v 0.350793 0.342666 0.992246
v -0.315873 -0.990667 0.325579
v 0.350793 1.009333 0.325579
v -0.982540 -0.324001 -0.341087
v 0.350793 -0.324001 -1.007754
v 1.017460 -0.324001 0.325579
v -0.315873 -0.324001 0.992246
v 0.350793 -0.990667 -0.341087
v -0.315873 1.009333 -0.341087
v -0.982540 0.009333 0.992246
v -0.982540 1.009333 -0.007754
v -0.982540 0.009333 -1.007754
v -0.982540 -0.990667 -0.007754
v 0.017460 1.009333 -1.007754
v 1.017460 0.009333 -1.007754
v 0.017460 -0.990667 -1.007754
v 1.017460 1.009333 -0.007754
v 1.017460 0.009333 0.992246
v 1.017460 -0.990667 -0.007754
v 0.017460 1.009333 0.992246
v 0.017460 -0.990667 0.992246
v -0.982540 0.009333 -0.007754
v 0.017460 0.009333 -1.007754
v 1.017460 0.009333 -0.007754
v 0.017460 0.009333 0.992246
v 0.017460 -0.990667 -0.007754
v 0.017460 1.009333 -0.007754
v -0.982540 -0.990667 0.992246
v -0.982540 1.009333 0.992246
v -0.982540 -0.990667 -1.007754
v -0.982540 1.009333 -1.007754
v 1.017460 -0.990667 0.992246
v 1.017460 1.009333 0.992246
v 1.017460 -0.990667 -1.007754
v 1.017460 1.009333 -1.007754
vn 1.0000 0.0000 0.0000
vn 0.5773 -0.5773 0.5773
vn 0.7071 -0.7071 0.0000
vn 0.5773 -0.5773 -0.5773
vn 0.7071 0.0000 -0.7071
vn 0.5773 0.5773 -0.5773
vn 0.0000 0.0000 1.0000
vn -0.5773 -0.5773 0.5773
vn 0.0000 -0.7071 0.7071
vn 0.7071 0.0000 0.7071
vn 0.5773 0.5773 0.5773
vn -1.0000 0.0000 0.0000
vn -0.5773 -0.5773 -0.5773
vn -0.7071 -0.7071 0.0000
vn -0.7071 0.0000 0.7071
vn -0.5773 0.5773 0.5773
vn 0.0000 0.0000 -1.0000
vn 0.0000 -0.7071 -0.7071
vn -0.7071 0.0000 -0.7071
vn -0.5773 0.5773 -0.5773
vn 0.0000 1.0000 0.0000
vn 0.7071 0.7071 0.0000
vn 0.0000 0.7071 -0.7071
vn 0.0000 -1.0000 0.0000
vn 0.0000 0.7071 0.7071
vn -0.7071 0.7071 0.0000
usemtl None
s 1
f 1//1 25//1 34//2 14//3
f 1//1 14//3 32//4 13//5
f 1//1 13//5 31//6 25//1
f 2//7 26//7 38//8 17//9
f 2//7 17//9 34//2 15//10
f 2//7 15//10 33//11 26//7
f 3//12 27//12 36//13 20//14
f 3//12 20//14 38//8 18//15
f 3//12 18//15 37//16 27//12
f 4//17 28//17 32//4 23//18
f 4//17 23//18 36//13 21//19
f 4//17 21//19 35//20 28//17
f 5//21 29//21 33//11 16//22
f 5//21 16//22 31//6 24//23
f 5//21 24//23 35//20 29//21
f 6//24 30//24 38//8 20//14
f 6//24 20//14 36//13 23//18
f 6//24 23//18 32//4 30//24
f 7//1 15//10 34//2 25//1
f 7//1 25//1 31//6 16//22
f 7//1 16//22 33//11 15//10
f 8//7 18//15 38//8 26//7
f 8//7 26//7 33//11 19//25
f 8//7 19//25 37//16 18//15
f 9//12 21//19 36//13 27//12
f 9//12 27//12 37//16 22//26
f 9//12 22//26 35//20 21//19
f 10//17 13//5 32//4 28//17
f 10//17 28//17 35//20 24//23
f 10//17 24//23 31//6 13//5
f 11//21 19//25 33//11 29//21
f 11//21 29//21 35//20 22//26
f 11//21 22//26 37//16 19//25
f 12//24 17//9 38//8 30//24
f 12//24 30//24 32//4 14//3
f 12//24 14//3 34//2 17//9
