# Blender v2.77 (sub 0) OBJ File: ''
# www.blender.org
o Cylinder
v 0.097545 0.000000 -0.990393
v 0.288887 0.000000 -0.952332
v 0.469127 0.000000 -0.877675
v 0.631339 0.000000 -0.769288
v 0.769288 0.000000 -0.631338
v 0.877675 0.000000 -0.469127
v 0.952332 0.000000 -0.288887
v 0.990393 0.000000 -0.097545
v 0.990393 0.000000 0.097545
v 0.952332 0.000000 0.288887
v 0.877675 0.000000 0.469127
v 0.769288 0.000000 0.631338
v 0.631338 0.000000 0.769288
v 0.469127 0.000000 0.877675
v 0.288887 0.000000 0.952332
v 0.097545 0.000000 0.990393
v -0.097546 0.000000 0.990393
v -0.288887 0.000000 0.952332
v -0.469127 0.000000 0.877674
v -0.631339 0.000000 0.769288
v -0.769289 0.000000 0.631338
v -0.877675 0.000000 0.469126
v -0.952333 0.000000 0.288886
v -0.990393 0.000000 0.097544
v -0.990393 0.000000 -0.097546
v -0.952332 0.000000 -0.288888
v -0.877674 0.000000 -0.469128
v -0.769287 0.000000 -0.631339
v -0.631338 0.000000 -0.769289
v -0.469126 0.000000 -0.877675
v 0.000000 1.000000 -0.000000
v -0.288885 0.000000 -0.952333
v -0.097544 0.000000 -0.990393
v 0.000000 -1.000000 -0.000000
v 0.097545 -1.000000 -0.990393
v 0.097545 1.000000 -0.990393
v 0.000000 0.000000 -1.000000
v 0.195090 0.000000 -0.980785
v 0.288887 -1.000000 -0.952332
v 0.288887 1.000000 -0.952332
v 0.382683 0.000000 -0.923880
v 0.469127 -1.000000 -0.877675
v 0.469127 1.000000 -0.877675
v 0.555570 0.000000 -0.831470
v 0.631338 -1.000000 -0.769288
v 0.631338 1.000000 -0.769288
v 0.707107 0.000000 -0.707107
v 0.769288 -1.000000 -0.631338
v 0.769288 1.000000 -0.631338
v 0.831470 0.000000 -0.555570
v 0.877675 -1.000000 -0.469127
v 0.877675 1.000000 -0.469127
v 0.923880 0.000000 -0.382683
v 0.952332 -1.000000 -0.288887
v 0.952332 1.000000 -0.288887
v 0.980785 0.000000 -0.195090
v 0.990393 -1.000000 -0.097545
v 0.990393 1.000000 -0.097545
v 1.000000 0.000000 -0.000000
v 0.990393 -1.000000 0.097545
v 0.990393 1.000000 0.097545
v 0.980785 0.000000 0.195090
v 0.952332 -1.000000 0.288887
v 0.952332 1.000000 0.288887
v 0.923880 0.000000 0.382683
v 0.877675 -1.000000 0.469127
v 0.877675 1.000000 0.469127
v 0.831470 0.000000 0.555570
v 0.769288 -1.000000 0.631338
v 0.769288 1.000000 0.631338
v 0.707107 0.000000 0.707107
v 0.631338 -1.000000 0.769288
v 0.631338 1.000000 0.769288
v 0.555570 0.000000 0.831470
v 0.469127 -1.000000 0.877675
v 0.469127 1.000000 0.877675
v 0.382683 0.000000 0.923880
v 0.288887 -1.000000 0.952332
v 0.288887 1.000000 0.952332
v 0.195090 0.000000 0.980785
v 0.097545 -1.000000 0.990393
v 0.097545 1.000000 0.990393
v -0.000000 0.000000 1.000000
v -0.097546 -1.000000 0.990393
v -0.097546 1.000000 0.990393
v -0.195091 0.000000 0.980785
v -0.288887 -1.000000 0.952332
v -0.288887 1.000000 0.952332
v -0.382684 0.000000 0.923879
v -0.469127 -1.000000 0.877674
v -0.469127 1.000000 0.877674
v -0.555571 0.000000 0.831469
v -0.631339 -1.000000 0.769288
v -0.631339 1.000000 0.769288
v -0.707107 0.000000 0.707106
v -0.769289 -1.000000 0.631338
v -0.769289 1.000000 0.631338
v -0.831470 0.000000 0.555570
v -0.877675 -1.000000 0.469126
v -0.877675 1.000000 0.469126
v -0.923880 0.000000 0.382683
v -0.952333 -1.000000 0.288886
v -0.952333 1.000000 0.288886
v -0.980785 0.000000 0.195089
v -0.990393 -1.000000 0.097544
v -0.990393 1.000000 0.097544
v -1.000000 0.000000 -0.000001
v -0.990393 -1.000000 -0.097546
v -0.990393 1.000000 -0.097546
v -0.980785 0.000000 -0.195091
v -0.952332 -1.000000 -0.288888
v -0.952332 1.000000 -0.288888
v -0.923879 0.000000 -0.382684
v -0.877674 -1.000000 -0.469128
v -0.877674 1.000000 -0.469128
v -0.831469 0.000000 -0.555571
v -0.769287 -1.000000 -0.631339
v -0.769287 1.000000 -0.631339
v -0.707106 0.000000 -0.707108
v -0.631338 -1.000000 -0.769289
v -0.631338 1.000000 -0.769289
v -0.555569 0.000000 -0.831470
v -0.469126 -1.000000 -0.877675
v -0.469126 1.000000 -0.877675
v -0.382682 0.000000 -0.923880
v -0.288885 -1.000000 -0.952333
v -0.288885 1.000000 -0.952333
v -0.195089 0.000000 -0.980786
v -0.097544 -1.000000 -0.990393
v -0.097544 1.000000 -0.990393
v 0.000000 -1.000000 -1.000000
v 0.000000 1.000000 -1.000000
v 0.195090 -1.000000 -0.980785
v 0.195090 1.000000 -0.980785
v 0.382683 -1.000000 -0.923880
v 0.382683 1.000000 -0.923880
v 0.555570 -1.000000 -0.831470
v 0.555570 1.000000 -0.831470
v 0.707107 -1.000000 -0.707107
v 0.707107 1.000000 -0.707107
v 0.831470 -1.000000 -0.555570
v 0.831470 1.000000 -0.555570
v 0.923880 -1.000000 -0.382683
v 0.923880 1.000000 -0.382683
v 0.980785 -1.000000 -0.195090
v 0.980785 1.000000 -0.195090
v 1.000000 -1.000000 -0.000000
v 1.000000 1.000000 -0.000000
v 0.980785 -1.000000 0.195090
v 0.980785 1.000000 0.195090
v 0.923880 -1.000000 0.382683
v 0.923880 1.000000 0.382683
v 0.831470 -1.000000 0.555570
v 0.831470 1.000000 0.555570
v 0.707107 -1.000000 0.707107
v 0.707107 1.000000 0.707107
v 0.555570 -1.000000 0.831470
v 0.555570 1.000000 0.831470
v 0.382683 -1.000000 0.923880
v 0.382683 1.000000 0.923880
v 0.195090 -1.000000 0.980785
v 0.195090 1.000000 0.980785
v -0.000000 -1.000000 1.000000
v -0.000000 1.000000 1.000000
v -0.195091 -1.000000 0.980785
v -0.195091 1.000000 0.980785
v -0.382684 -1.000000 0.923879
v -0.382684 1.000000 0.923879
v -0.555571 -1.000000 0.831469
v -0.555571 1.000000 0.831469
v -0.707107 -1.000000 0.707106
v -0.707107 1.000000 0.707106
v -0.831470 -1.000000 0.555570
v -0.831470 1.000000 0.555570
v -0.923880 -1.000000 0.382683
v -0.923880 1.000000 0.382683
v -0.980785 -1.000000 0.195089
v -0.980785 1.000000 0.195089
v -1.000000 -1.000000 -0.000001
v -1.000000 1.000000 -0.000001
v -0.980785 -1.000000 -0.195091
v -0.980785 1.000000 -0.195091
v -0.923879 -1.000000 -0.382684
v -0.923879 1.000000 -0.382684
v -0.831469 -1.000000 -0.555571
v -0.831469 1.000000 -0.555571
v -0.707106 -1.000000 -0.707108
v -0.707106 1.000000 -0.707108
v -0.555569 -1.000000 -0.831470
v -0.555569 1.000000 -0.831470
v -0.382682 -1.000000 -0.923880
v -0.382682 1.000000 -0.923880
v -0.195089 -1.000000 -0.980786
v -0.195089 1.000000 -0.980786
vn 0.0980 -0.0000 -0.9952
vn 0.2903 0.0000 -0.9569
vn 0.4714 0.0000 -0.8819
vn 0.6344 0.0000 -0.7730
vn 0.7730 0.0000 -0.6344
vn 0.8819 0.0000 -0.4714
vn 0.9569 0.0000 -0.2903
vn 0.9952 0.0000 -0.0980
vn 0.9952 0.0000 0.0980
vn 0.9569 0.0000 0.2903
vn 0.8819 0.0000 0.4714
vn 0.7730 0.0000 0.6344
vn 0.6344 0.0000 0.7730
vn 0.4714 0.0000 0.8819
vn 0.2903 0.0000 0.9569
vn 0.0980 0.0000 0.9952
vn -0.0980 0.0000 0.9952
vn -0.2903 0.0000 0.9569
vn -0.4714 0.0000 0.8819
vn -0.6344 0.0000 0.7730
vn -0.7730 0.0000 0.6344
vn -0.8819 0.0000 0.4714
vn -0.9569 0.0000 0.2903
vn -0.9952 0.0000 0.0980
vn -0.9952 0.0000 -0.0980
vn -0.9569 0.0000 -0.2903
vn -0.8819 0.0000 -0.4714
vn -0.7730 0.0000 -0.6344
vn -0.6344 0.0000 -0.7730
vn -0.4714 0.0000 -0.8819
vn 0.0000 1.0000 0.0000
vn -0.2903 0.0000 -0.9569
vn -0.0980 0.0000 -0.9952
vn 0.0000 -1.0000 0.0000
s off
f 35//1 37//1 1//1
f 37//1 36//1 1//1
f 36//1 38//1 1//1
f 38//1 35//1 1//1
f 39//2 38//2 2//2
f 38//2 40//2 2//2
f 40//2 41//2 2//2
f 41//2 39//2 2//2
f 42//3 41//3 3//3
f 41//3 43//3 3//3
f 43//3 44//3 3//3
f 44//3 42//3 3//3
f 45//4 44//4 4//4
f 44//4 46//4 4//4
f 46//4 47//4 4//4
f 47//4 45//4 4//4
f 48//5 47//5 5//5
f 47//5 49//5 5//5
f 49//5 50//5 5//5
f 50//5 48//5 5//5
f 51//6 50//6 6//6
f 50//6 52//6 6//6
f 52//6 53//6 6//6
f 53//6 51//6 6//6
f 54//7 53//7 7//7
f 53//7 55//7 7//7
f 55//7 56//7 7//7
f 56//7 54//7 7//7
f 57//8 56//8 8//8
f 56//8 58//8 8//8
f 58//8 59//8 8//8
f 59//8 57//8 8//8
f 60//9 59//9 9//9
f 59//9 61//9 9//9
f 61//9 62//9 9//9
f 62//9 60//9 9//9
f 63//10 62//10 10//10
f 62//10 64//10 10//10
f 64//10 65//10 10//10
f 65//10 63//10 10//10
f 66//11 65//11 11//11
f 65//11 67//11 11//11
f 67//11 68//11 11//11
f 68//11 66//11 11//11
f 69//12 68//12 12//12
f 68//12 70//12 12//12
f 70//12 71//12 12//12
f 71//12 69//12 12//12
f 72//13 71//13 13//13
f 71//13 73//13 13//13
f 73//13 74//13 13//13
f 74//13 72//13 13//13
f 75//14 74//14 14//14
f 74//14 76//14 14//14
f 76//14 77//14 14//14
f 77//14 75//14 14//14
f 78//15 77//15 15//15
f 77//15 79//15 15//15
f 79//15 80//15 15//15
f 80//15 78//15 15//15
f 81//16 80//16 16//16
f 80//16 82//16 16//16
f 82//16 83//16 16//16
f 83//16 81//16 16//16
f 84//17 83//17 17//17
f 83//17 85//17 17//17
f 85//17 86//17 17//17
f 86//17 84//17 17//17
f 87//18 86//18 18//18
f 86//18 88//18 18//18
f 88//18 89//18 18//18
f 89//18 87//18 18//18
f 90//19 89//19 19//19
f 89//19 91//19 19//19
f 91//19 92//19 19//19
f 92//19 90//19 19//19
f 93//20 92//20 20//20
f 92//20 94//20 20//20
f 94//20 95//20 20//20
f 95//20 93//20 20//20
f 96//21 95//21 21//21
f 95//21 97//21 21//21
f 97//21 98//21 21//21
f 98//21 96//21 21//21
f 99//22 98//22 22//22
f 98//22 100//22 22//22
f 100//22 101//22 22//22
f 101//22 99//22 22//22
f 102//23 101//23 23//23
f 101//23 103//23 23//23
f 103//23 104//23 23//23
f 104//23 102//23 23//23
f 105//24 104//24 24//24
f 104//24 106//24 24//24
f 106//24 107//24 24//24
f 107//24 105//24 24//24
f 108//25 107//25 25//25
f 107//25 109//25 25//25
f 109//25 110//25 25//25
f 110//25 108//25 25//25
f 111//26 110//26 26//26
f 110//26 112//26 26//26
f 112//26 113//26 26//26
f 113//26 111//26 26//26
f 114//27 113//27 27//27
f 113//27 115//27 27//27
f 115//27 116//27 27//27
f 116//27 114//27 27//27
f 117//28 116//28 28//28
f 116//28 118//28 28//28
f 118//28 119//28 28//28
f 119//28 117//28 28//28
f 120//29 119//29 29//29
f 119//29 121//29 29//29
f 121//29 122//29 29//29
f 122//29 120//29 29//29
f 123//30 122//30 30//30
f 122//30 124//30 30//30
f 124//30 125//30 30//30
f 125//30 123//30 30//30
f 40//31 36//31 31//31
f 36//31 130//31 31//31
f 130//31 127//31 31//31
f 127//31 124//31 31//31
f 124//31 121//31 31//31
f 121//31 118//31 31//31
f 118//31 115//31 31//31
f 115//31 112//31 31//31
f 112//31 109//31 31//31
f 109//31 106//31 31//31
f 106//31 103//31 31//31
f 103//31 100//31 31//31
f 100//31 97//31 31//31
f 97//31 94//31 31//31
f 94//31 91//31 31//31
f 91//31 88//31 31//31
f 88//31 85//31 31//31
f 85//31 82//31 31//31
f 82//31 79//31 31//31
f 79//31 76//31 31//31
f 76//31 73//31 31//31
f 73//31 70//31 31//31
f 70//31 67//31 31//31
f 67//31 64//31 31//31
f 64//31 61//31 31//31
f 61//31 58//31 31//31
f 58//31 55//31 31//31
f 55//31 52//31 31//31
f 52//31 49//31 31//31
f 49//31 46//31 31//31
f 46//31 43//31 31//31
f 43//31 40//31 31//31
f 126//32 125//32 32//32
f 125//32 127//32 32//32
f 127//32 128//32 32//32
f 128//32 126//32 32//32
f 129//33 128//33 33//33
f 128//33 130//33 33//33
f 130//33 37//33 33//33
f 37//33 129//33 33//33
f 129//34 35//34 34//34
f 35//34 39//34 34//34
f 39//34 42//34 34//34
f 42//34 45//34 34//34
f 45//34 48//34 34//34
f 48//34 51//34 34//34
f 51//34 54//34 34//34
f 54//34 57//34 34//34
f 57//34 60//34 34//34
f 60//34 63//34 34//34
f 63//34 66//34 34//34
f 66//34 69//34 34//34
f 69//34 72//34 34//34
f 72//34 75//34 34//34
f 75//34 78//34 34//34
f 78//34 81//34 34//34
f 81//34 84//34 34//34
f 84//34 87//34 34//34
f 87//34 90//34 34//34
f 90//34 93//34 34//34
f 93//34 96//34 34//34
f 96//34 99//34 34//34
f 99//34 102//34 34//34
f 102//34 105//34 34//34
f 105//34 108//34 34//34
f 108//34 111//34 34//34
f 111//34 114//34 34//34
f 114//34 117//34 34//34
f 117//34 120//34 34//34
f 120//34 123//34 34//34
f 123//34 126//34 34//34
f 126//34 129//34 34//34
f 35//1 131//1 37//1
f 37//1 132//1 36//1
f 36//1 134//1 38//1
f 38//1 133//1 35//1
f 39//2 133//2 38//2
f 38//2 134//2 40//2
f 40//2 136//2 41//2
f 41//2 135//2 39//2
f 42//3 135//3 41//3
f 41//3 136//3 43//3
f 43//3 138//3 44//3
f 44//3 137//3 42//3
f 45//4 137//4 44//4
f 44//4 138//4 46//4
f 46//4 140//4 47//4
f 47//4 139//4 45//4
f 48//5 139//5 47//5
f 47//5 140//5 49//5
f 49//5 142//5 50//5
f 50//5 141//5 48//5
f 51//6 141//6 50//6
f 50//6 142//6 52//6
f 52//6 144//6 53//6
f 53//6 143//6 51//6
f 54//7 143//7 53//7
f 53//7 144//7 55//7
f 55//7 146//7 56//7
f 56//7 145//7 54//7
f 57//8 145//8 56//8
f 56//8 146//8 58//8
f 58//8 148//8 59//8
f 59//8 147//8 57//8
f 60//9 147//9 59//9
f 59//9 148//9 61//9
f 61//9 150//9 62//9
f 62//9 149//9 60//9
f 63//10 149//10 62//10
f 62//10 150//10 64//10
f 64//10 152//10 65//10
f 65//10 151//10 63//10
f 66//11 151//11 65//11
f 65//11 152//11 67//11
f 67//11 154//11 68//11
f 68//11 153//11 66//11
f 69//12 153//12 68//12
f 68//12 154//12 70//12
f 70//12 156//12 71//12
f 71//12 155//12 69//12
f 72//13 155//13 71//13
f 71//13 156//13 73//13
f 73//13 158//13 74//13
f 74//13 157//13 72//13
f 75//14 157//14 74//14
f 74//14 158//14 76//14
f 76//14 160//14 77//14
f 77//14 159//14 75//14
f 78//15 159//15 77//15
f 77//15 160//15 79//15
f 79//15 162//15 80//15
f 80//15 161//15 78//15
f 81//16 161//16 80//16
f 80//16 162//16 82//16
f 82//16 164//16 83//16
f 83//16 163//16 81//16
f 84//17 163//17 83//17
f 83//17 164//17 85//17
f 85//17 166//17 86//17
f 86//17 165//17 84//17
f 87//18 165//18 86//18
f 86//18 166//18 88//18
f 88//18 168//18 89//18
f 89//18 167//18 87//18
f 90//19 167//19 89//19
f 89//19 168//19 91//19
f 91//19 170//19 92//19
f 92//19 169//19 90//19
f 93//20 169//20 92//20
f 92//20 170//20 94//20
f 94//20 172//20 95//20
f 95//20 171//20 93//20
f 96//21 171//21 95//21
f 95//21 172//21 97//21
f 97//21 174//21 98//21
f 98//21 173//21 96//21
f 99//22 173//22 98//22
f 98//22 174//22 100//22
f 100//22 176//22 101//22
f 101//22 175//22 99//22
f 102//23 175//23 101//23
f 101//23 176//23 103//23
f 103//23 178//23 104//23
f 104//23 177//23 102//23
f 105//24 177//24 104//24
f 104//24 178//24 106//24
f 106//24 180//24 107//24
f 107//24 179//24 105//24
f 108//25 179//25 107//25
f 107//25 180//25 109//25
f 109//25 182//25 110//25
f 110//25 181//25 108//25
f 111//26 181//26 110//26
f 110//26 182//26 112//26
f 112//26 184//26 113//26
f 113//26 183//26 111//26
f 114//27 183//27 113//27
f 113//27 184//27 115//27
f 115//27 186//27 116//27
f 116//27 185//27 114//27
f 117//28 185//28 116//28
f 116//28 186//28 118//28
f 118//28 188//28 119//28
f 119//28 187//28 117//28
f 120//29 187//29 119//29
f 119//29 188//29 121//29
f 121//29 190//29 122//29
f 122//29 189//29 120//29
f 123//30 189//30 122//30
f 122//30 190//30 124//30
f 124//30 192//30 125//30
f 125//30 191//30 123//30
f 40//31 134//31 36//31
f 36//31 132//31 130//31
f 130//31 194//31 127//31
f 127//31 192//31 124//31
f 124//31 190//31 121//31
f 121//31 188//31 118//31
f 118//31 186//31 115//31
f 115//31 184//31 112//31
f 112//31 182//31 109//31
f 109//31 180//31 106//31
f 106//31 178//31 103//31
f 103//31 176//31 100//31
f 100//31 174//31 97//31
f 97//31 172//31 94//31
f 94//31 170//31 91//31
f 91//31 168//31 88//31
f 88//31 166//31 85//31
f 85//31 164//31 82//31
f 82//31 162//31 79//31
f 79//31 160//31 76//31
f 76//31 158//31 73//31
f 73//31 156//31 70//31
f 70//31 154//31 67//31
f 67//31 152//31 64//31
f 64//31 150//31 61//31
f 61//31 148//31 58//31
f 58//31 146//31 55//31
f 55//31 144//31 52//31
f 52//31 142//31 49//31
f 49//31 140//31 46//31
f 46//31 138//31 43//31
f 43//31 136//31 40//31
f 126//32 191//32 125//32
f 125//32 192//32 127//32
f 127//32 194//32 128//32
f 128//32 193//32 126//32
f 129//33 193//33 128//33
f 128//33 194//33 130//33
f 130//33 132//33 37//33
f 37//33 131//33 129//33
f 129//34 131//34 35//34
f 35//34 133//34 39//34
f 39//34 135//34 42//34
f 42//34 137//34 45//34
f 45//34 139//34 48//34
f 48//34 141//34 51//34
f 51//34 143//34 54//34
f 54//34 145//34 57//34
f 57//34 147//34 60//34
f 60//34 149//34 63//34
f 63//34 151//34 66//34
f 66//34 153//34 69//34
f 69//34 155//34 72//34
f 72//34 157//34 75//34
f 75//34 159//34 78//34
f 78//34 161//34 81//34
f 81//34 163//34 84//34
f 84//34 165//34 87//34
f 87//34 167//34 90//34
f 90//34 169//34 93//34
f 93//34 171//34 96//34
f 96//34 173//34 99//34
f 99//34 175//34 102//34
f 102//34 177//34 105//34
f 105//34 179//34 108//34
f 108//34 181//34 111//34
f 111//34 183//34 114//34
f 114//34 185//34 117//34
f 117//34 187//34 120//34
f 120//34 189//34 123//34
f 123//34 191//34 126//34
f 126//34 193//34 129//34
